PathFileType	4	(X/Y/Z)	72_1_14_p1_0-206_filt_butterworth.trc
DataRate	CameraRate	NumFrames	NumMarkers	Units	OrigDataRate	OrigDataStartFrame	OrigNumFrames
47.0	47.0	6	27	m	47.0	103	206
Frame#	Time	RHip			RKnee			RAnkle			RBigToe			RSmallToe			RHeel			LHip			LKnee			LAnkle			LBigToe			LSmallToe			LHeel			Neck			Head			Nose			RShoulder			RElbow			RWrist			RThumb			RIndex			RPinky			LShoulder			LElbow			LWrist			LThumb			LIndex			LPinky			
		X1	Y1	Z1	X2	Y2	Z2	X3	Y3	Z3	X4	Y4	Z4	X5	Y5	Z5	X6	Y6	Z6	X7	Y7	Z7	X8	Y8	Z8	X9	Y9	Z9	X10	Y10	Z10	X11	Y11	Z11	X12	Y12	Z12	X13	Y13	Z13	X14	Y14	Z14	X15	Y15	Z15	X16	Y16	Z16	X17	Y17	Z17	X18	Y18	Z18	X19	Y19	Z19	X20	Y20	Z20	X21	Y21	Z21	X22	Y22	Z22	X23	Y23	Z23	X24	Y24	Z24	X25	Y25	Z25	X26	Y26	Z26	X27	Y27	Z27	
103	2.191489361702128	0.13548425418669974	0.6468439932324644	0.7949791023467154	0.25194795143661286	0.4766154917690047	1.0445634033416025	0.18868530980971077	0.6835856185892144	1.4718913284354533	0.1991563543416437	0.5256724046281495	1.5295356415267005	0.26426001405476784	0.5962820225466056	1.5384173518289255	0.16913280241737644	0.7389283535281793	1.5343915419632137	-0.05623531343983329	0.7202673057751149	0.7664585904031519	-0.10430619797272056	0.45031414810932346	1.0558185284315649	-0.011118537078354765	0.6498367017708061	1.432347828943394	-0.00437623472262497	0.43834891575496676	1.4492932424064504	-0.05094485683755317	0.47406984113793177	1.4479653689687815	0.021290319492252765	0.7362159022446565	1.5187913793052785	0.313872507080137	0.30248559305433564	0.615558830620411	0.6283759951773588	0.25460995151814386	0.6108845556282589	0.45715221356127	0.20463913100882805	0.6973664962530627	0.42220417671815524	0.48203870871712706	0.6698028775608253	0.44019803653320166	0.5582422049024177	0.9626063579969203	0.4560398262895572	0.526414901743057	1.283028627905285	0.4103262042431033	0.417351800535861	1.363258692283935	0.42686651514581875	0.4193240076460123	1.4009845627051716	0.4244060442033674	0.459313849144543	1.4078260401033138	0.23484796134317432	0.2768924305679958	0.5559705109014837	0.22096170502571877	0.018208178026431026	0.705324549200708	0.3392561457147611	-0.11397500928190285	0.9004813477367537	0.4127457017628072	-0.13197620857413042	1.017876801011532	0.4076482324362304	-0.16997941860237736	1.0103648174911966	0.34317378591417746	-0.20277896162677211	0.9790438637689658
104	2.2127659574468086	0.14213677887425816	0.6569946112029166	0.8018411828250039	0.26843753264559433	0.5011594073331717	1.0710283171152615	0.2015379110919711	0.7167193078859784	1.4854295129677657	0.1799485486336571	0.499728948116233	1.5064793085007655	0.24813473748372453	0.5807320408218876	1.5224815544078436	0.1701477346292766	0.7398178061321449	1.5217014392769372	-0.05374728620680794	0.7160011144636709	0.7718016458981902	-0.10693009021129929	0.44504658954817855	1.0587522262824576	-0.011690272299632012	0.6468591793189689	1.4290041183439464	-0.004338608484448614	0.4350090860939563	1.448381599190406	-0.05437616999506317	0.47423459138232865	1.449293415724971	0.016542893429210552	0.7165476764596509	1.5117874531109625	0.314605611596255	0.3053592501924551	0.6324351848103256	0.6274036317129204	0.250585161736715	0.6279920466406765	0.4540143108834659	0.21647921645340956	0.712639444248483	0.42158111857386066	0.4856867118121787	0.6703797513206773	0.43789667071094	0.5359644946545479	0.9695409757873918	0.4505960195873684	0.5383493729381911	1.288491840574049	0.40846460649836647	0.4369712673007914	1.3716342220040936	0.41724713312813794	0.4457226555193947	1.4079544398775323	0.4156600286825487	0.46199156706156574	1.4087631333203539	0.22891769860608352	0.28553438167470213	0.5835564176191831	0.21437380846192144	0.041874716559225734	0.7604307949880171	0.3239875418241993	-0.0879443381007923	0.9626244124127468	0.3908944003324193	-0.10987697294299295	1.0862281647616792	0.3891685337267309	-0.14204923574182116	1.080121646545743	0.3269343926911501	-0.17017439714172186	1.0467415953202606
105	2.234042553191489	0.15038512203416515	0.6720221681403984	0.8085332614915632	0.2765538821894955	0.5031333955837505	1.0745552489847239	0.2284982753779261	0.7628334813915844	1.523014869868834	0.1697970900770957	0.48535235117741365	1.491826795338164	0.2321957213620808	0.5670307532555899	1.5166138128324542	0.17753811414498158	0.7492616623881567	1.5325212776425194	-0.05153198760481408	0.7156191811720112	0.7714160910070869	-0.10749091999414487	0.4405789519421435	1.059436675342132	-0.011961926180455471	0.6411545888174592	1.4285650193153567	-0.006614068901434386	0.4245097873240967	1.4437340196201487	-0.05967973450345385	0.4609929449319938	1.4419067070260947	0.007615731076236777	0.6935697531335074	1.5049510881982893	0.31314549459174007	0.30661867730226067	0.6490598431592517	0.6248218418514772	0.2393224014183744	0.6413906141693305	0.4529240812801312	0.22414244141437634	0.7253194200420443	0.42237414185350813	0.49043798645850945	0.6761818265336463	0.4321430272146567	0.5358817709700519	0.9783845722104815	0.4445522765917325	0.5336209064895295	1.2874710402443215	0.40927786703542196	0.4461075688854472	1.3788642274383636	0.41767326541222705	0.45901505991766056	1.4127238406414875	0.4081836995906898	0.4583911551736862	1.4059024561310436	0.22465234917501933	0.28655647967276676	0.6100445250789617	0.2069893714717947	0.07286751074653446	0.8103326383653223	0.303586157447723	-0.06385102558048904	1.01316685280273	0.3674777857842013	-0.07431531953158856	1.138941282773181	0.36935816713163516	-0.10687011661592526	1.1347656164014255	0.30957694894463533	-0.1253693790040814	1.1095701752915443
106	2.25531914893617	0.15587917028945192	0.6828408515193448	0.8149683276486989	0.28197454608371997	0.4891389481152535	1.0476824098600162	0.2591569504345924	0.8011348221670255	1.5679051312366805	0.1704571315449524	0.482971788739879	1.4869014496037543	0.2210244494263458	0.5544756846482881	1.5185895089571073	0.18814562987239	0.7626179502336573	1.561104041815759	-0.048808891932068374	0.7173734645199569	0.7708552252059951	-0.1040041375233529	0.43833922674561865	1.0587649921750817	-0.012761608537056608	0.6380693450587253	1.4327296789024941	-0.01076396489282761	0.4174680301585243	1.439935302729862	-0.06285045155074115	0.451545960251581	1.4364120077324405	0.0025985605786378167	0.6919175736378849	1.5021117971335838	0.3084212927738793	0.3075260852204973	0.663249614795167	0.6213643861665488	0.22821160102297097	0.6555544487731669	0.4531336318356799	0.2271295459842382	0.7419780199169504	0.4235833337545956	0.49459066784312833	0.6860317028153031	0.41943205947523693	0.5955072311238812	0.9973838354783913	0.4397501517520057	0.5183129065247766	1.2850955799624941	0.4136330711961478	0.4404083352880102	1.377807643083319	0.42947422898079046	0.4647509461821804	1.4124774493015924	0.40604760717701893	0.4457484435501377	1.3945484938483423	0.2222402730566228	0.28595812963888845	0.6314213730587014	0.19949065172170088	0.10503300112341583	0.8536638923198784	0.27518927581505054	-0.03262689383568956	1.0583484256074078	0.34283771600377555	-0.020308142011166916	1.184566662341918	0.34484642739240706	-0.05699150295946329	1.1826544511478032	0.2835279530276143	-0.07464565236081744	1.1641181782379004
107	2.276595744680851	0.15864657440235025	0.6863594792094978	0.8210826623476695	0.2863127376766422	0.4740714607619299	1.023920516589575	0.27470765072578945	0.8128644807888834	1.589838938549986	0.17665420358667216	0.4862063721140334	1.4863306835111119	0.21753475074287687	0.546999888196098	1.520839001000729	0.1948415783952855	0.7714417612825814	1.5835564502905366	-0.045889300677843525	0.7185351583294345	0.7711440180942957	-0.09750468420068888	0.43972188896601	1.059010802290178	-0.014034037330777056	0.6391507904938758	1.4380061605926688	-0.00573640770502968	0.44051279868938675	1.4578997701442835	-0.0654513125168976	0.4593395807339773	1.4403320783813522	0.0030886552051721996	0.7112450805251209	1.5039677395795668	0.30426407343932077	0.3116408021212649	0.6745816307041995	0.6173142931498173	0.22173067803317148	0.6723276412226101	0.45253498093718836	0.2276667323826257	0.7629468256954547	0.4265692959662014	0.5053463214861056	0.7003593819684916	0.40519735157704867	0.6984949316161978	1.0263130434759713	0.43818354715588304	0.5103232643940958	1.2843303861525062	0.41957373551228966	0.42400599709406794	1.3631295584491854	0.4457491142955048	0.4799009171884618	1.41151858259447	0.4120613565994893	0.42654072459616826	1.3683281450916331	0.22052749015545592	0.28670717395030226	0.6464138768094894	0.1902786865674187	0.14123916419120655	0.8886904318826976	0.24520936279398298	0.014372736352945524	1.1043545040604084	0.320059099043041	0.03904352234836762	1.2280826720174416	0.3170588021769974	0.004767118968723064	1.2319635660459558	0.2522995486962315	-0.01487280558113776	1.2125553222232275
108	2.297872340425532	0.16111651784774506	0.6884048852552465	0.8266960823757099	0.28738155418659445	0.4723479080243989	1.0436095711419517	0.26719462186700016	0.7940190104502372	1.5784888555163608	0.18331757034872748	0.48978892367753984	1.485804473928852	0.219783533877148	0.5464393213173024	1.5207914301765273	0.19473014463358243	0.7724314984379144	1.5895326941137726	-0.04403804316289715	0.7183746300748893	0.7713868352770044	-0.09107831813050953	0.44759282860886324	1.0627218684861317	-0.014327186570746876	0.6408185906083764	1.441424560558732	0.015810218070090015	0.5033600533284653	1.5067415013887837	-0.07132473012239968	0.46984697245514423	1.4443581752129258	0.003506189203356683	0.7266373611152928	1.5050278139234297	0.3035643162191025	0.3189604927237993	0.6821412660962966	0.6120023660082168	0.21667254244438366	0.6866460176512632	0.4497682503283988	0.22848491239678506	0.7815635954136901	0.4296164444297122	0.5250554906982328	0.7162195727309345	0.39724276879065645	0.782603537524011	1.0508481628799353	0.43935985507006353	0.5329950062731387	1.2845189319587593	0.4240753660477078	0.4091091471270917	1.3398124420562414	0.45719866912064294	0.5059891578089672	1.4105675052324922	0.4232078015264397	0.4192310487616502	1.3407319631869556	0.2193661205945293	0.2893969047591278	0.6532464833900906	0.17690492779744513	0.17401340234435606	0.9090083247790866	0.22485340907400175	0.06677944436579371	1.1421988308320938	0.30079551758280787	0.08437688314674222	1.2600696194882157	0.2917392642921675	0.060915116287449195	1.270773663396123	0.22797818853273882	0.04499436696942903	1.247087711404915
